<svg id="Layer_1" data-name="Layer 1" xmlns="http://www.w3.org/2000/svg" xmlns:xlink="http://www.w3.org/1999/xlink" viewBox="0 0 524.3 397.1"><defs><style>.cls-1{fill:none;}.cls-2{fill:url(#linear-gradient);}.cls-3{clip-path:url(#clip-path);}.cls-4{fill:#350457;}.cls-5{fill:#ee2a7b;}.cls-6{fill:#f9a51a;}</style><linearGradient id="linear-gradient" x1="0.04" y1="194.64" x2="522.42" y2="194.64" gradientTransform="matrix(1, 0, 0, -1, 0, 400)" gradientUnits="userSpaceOnUse"><stop offset="0" stop-color="#4b148f"/><stop offset="0.32" stop-color="#4e1692"/><stop offset="0.6" stop-color="#591c9d"/><stop offset="0.86" stop-color="#6b26af"/><stop offset="1" stop-color="#782dbc"/></linearGradient><clipPath id="clip-path"><path class="cls-1" d="M93,61.2C76.3,72.9,60.3,87.3,53.8,106.6s.3,44.2,19,52.2c5.2,2.2,11.4,3.4,14.7,7.9,3.8,5.1,2.2,12.4.1,18.4C67.9,239.6,10.8,277,1.1,334.1c-2.9,17.4-.2,37.2,12.8,49.1,14.5,13.2,36.4,12.5,55.9,10.7,123.7-11.6,225.3-41,340.6-87.1,33.4-13.4,86-41.9,101.1-74.6,28.9-62.9,2-138.3-99.2-185.8S156.5,16.7,93,61.2Z"/></clipPath></defs><title>tv</title><path class="cls-2" d="M93,60C76.3,71.7,60.3,86.1,53.8,105.4s.3,44.2,19,52.2c5.2,2.2,11.4,3.4,14.7,7.9,3.8,5.1,2.2,12.4.1,18.4-19.7,54.5-76.8,91.9-86.5,149C-1.8,350.3.9,370.1,13.9,382c14.5,13.2,36.4,12.5,55.9,10.7,123.7-11.6,225.3-41,340.6-87.1,33.4-13.4,86-41.9,101.1-74.6,28.9-62.9,2-138.3-99.2-185.8S156.5,15.5,93,60Z"/><g class="cls-3"><polyline class="cls-4" points="172.23 331.86 0.94 274.05 18.19 53.4 401.75 317.51"/></g><path class="cls-5" d="M334.68,92.41,328.8,95a1.2,1.2,0,0,1-1.56-.52c-4.79-8.86-40.45-74.89-40.47-78.53,0-3.91,6.44-1.79,6.44-1.79l42,76.53A1.21,1.21,0,0,1,334.68,92.41Z"/><circle class="cls-6" cx="286.23" cy="9.73" r="8.85"/><path class="cls-5" d="M270.46,91.47,155.08,115.2l261.17,37.86,64.19-30.25a2.6,2.6,0,0,0-.91-4.83L296,91.2A67.06,67.06,0,0,0,270.46,91.47Z"/><path class="cls-6" d="M481.75,120.34c-.72-3.09-66.09,33.4-66.09,33.4l-3.59,213.12s55.21-75.05,61.76-93.74C478.46,259.92,482.47,123.43,481.75,120.34Z"/><path class="cls-4" d="M156.3,115.28a6.69,6.69,0,0,0-3.23.29c-14.74,5.17,2.31,180.77,3.84,197.36a22,22,0,0,0,16.81,19.32l228.68,37.4a11.56,11.56,0,0,0,14-11.19l2.75-197.38a10.67,10.67,0,0,0-9-11.22Z"/><path class="cls-5" d="M250,314.21c-.92.05-52.36-6.38-56.81-19.45-5.05-14.8-5.68-71-5.51-95.06.16-23.25,2.35-30.47,3.46-28.8,1,1.46,10.2,96.81,12.58,118.09C204,291.62,254.1,314,250,314.21Z"/><path class="cls-4" d="M300.17,104c7.71,6.24,35.09,24.1,83.41,10.89a7.29,7.29,0,0,0,5-9.33c-3.08-9.21-11.34-24.49-33-30.07-28.9-7.47-50.3,13.09-56.37,23.64A3.81,3.81,0,0,0,300.17,104Z"/><path class="cls-5" d="M367.58,91.52h0a4.75,4.75,0,0,0,6.33-1.32c10.67-15.1,51.29-72.74,51.74-76.37.36-2.89-2.95-3.1-5-2.95a3.4,3.4,0,0,0-2.51,1.42l-52,72.35A4.77,4.77,0,0,0,367.58,91.52Z"/><circle class="cls-6" cx="424.87" cy="10.25" r="9.99"/><path class="cls-5" d="M175.51,147.75a4.5,4.5,0,0,0-2.44.29c-11.8,5.34-1.46,140.85,3.46,153,3.84,9.53,7.84,12.66,17.1,15.27L326.57,338c28.49,5.23,38.39-8.75,40-28.15l-1-123.74a12.63,12.63,0,0,0-3.69-9.22,9.46,9.46,0,0,0-5.41-2.77Z"/><path class="cls-6" d="M178.58,147.55a4.59,4.59,0,0,0-2.44.29c-11.8,5.35-.51,136.39,3.24,149,3.19,10.72,10.56,16.23,23.86,18.12,10.38,1.47,130.33,19.56,130.33,19.56,28.5,5.24,32.69-17.62,34.32-37l.62-114.6a12.71,12.71,0,0,0-3.69-9.23,9.62,9.62,0,0,0-5.41-2.77Z"/><rect class="cls-6" x="380.49" y="201.06" width="26.6" height="3.53" rx="1.3" transform="translate(13.05 -23.55) rotate(3.48)"/><rect class="cls-6" x="380.47" y="210.34" width="26.6" height="3.53" rx="1.3" transform="translate(13.62 -23.54) rotate(3.48)"/><rect class="cls-4" x="380.88" y="200.13" width="26.6" height="3.53" rx="1.3" transform="translate(13 -23.58) rotate(3.48)"/><rect class="cls-4" x="380.86" y="209.42" width="26.6" height="3.53" rx="1.3" transform="translate(13.56 -23.56) rotate(3.48)"/><ellipse class="cls-6" cx="392.37" cy="249.56" rx="11.44" ry="12.42" transform="translate(-57.49 131.84) rotate(-17.79)"/><ellipse class="cls-6" cx="391.56" cy="295.73" rx="11.29" ry="12.26" transform="translate(-16.45 23.15) rotate(-3.32)"/><path class="cls-6" d="M389,236.66,398.23,262a1.19,1.19,0,0,1-.63,1.54l-1.27.47a1.17,1.17,0,0,1-1.47-.75l-9.24-25.29a1.18,1.18,0,0,1,.64-1.54l1.26-.47A1.17,1.17,0,0,1,389,236.66Z"/><path class="cls-4" d="M390.62,237l8.65,23.65a10.7,10.7,0,0,1-1.11.74l-.11.06h0l-8.87-24.24h0A9,9,0,0,1,390.62,237Z"/><path class="cls-6" d="M403.33,291l-22.41,12.67a1.09,1.09,0,0,1-1.52-.52l-.66-1.37a1.27,1.27,0,0,1,.46-1.64l22.41-12.67a1.09,1.09,0,0,1,1.52.52l.66,1.37A1.26,1.26,0,0,1,403.33,291Z"/><path class="cls-4" d="M403.26,292.8l-20.92,11.83a12.1,12.1,0,0,1-.87-1.13l-.08-.12h0l21.45-12.13h0A12.36,12.36,0,0,1,403.26,292.8Z"/></svg>